<svg width="48" height="48" viewBox="0 0 48 48" fill="none" xmlns="http://www.w3.org/2000/svg">
<rect width="48" height="48" fill="white"/>
<path d="M15.5 44.5V35.5H17.5V44.5H15.5Z" stroke="#152C5B" stroke-width="2.5"/>
<path d="M29.5 44.5V35.5H31.5V44.5H29.5Z" stroke="#152C5B" stroke-width="2.5"/>
<path d="M22.5 20.5V13.5H24.5V20.5H22.5Z" stroke="#152C5B" stroke-width="2.5"/>
<mask id="path-4-inside-1" fill="white">
<path d="M29 17V12H31V17H29Z"/>
</mask>
<path d="M29 17H26V20H29V17ZM29 12V9H26V12H29ZM31 12H34V9H31V12ZM31 17V20H34V17H31ZM32 17V12H26V17H32ZM29 15H31V9H29V15ZM28 12V17H34V12H28ZM31 14H29V20H31V14Z" fill="#152C5B" mask="url(#path-4-inside-1)"/>
<path d="M21.5 30C21.5 29.1716 22.1716 28.5 23 28.5C23.8284 28.5 24.5 29.1716 24.5 30V31C24.5 31.8284 23.8284 32.5 23 32.5C22.1716 32.5 21.5 31.8284 21.5 31V30Z" stroke="#152C5B"/>
<path d="M11.4503 11.25L18.8878 0.75H28.625L36.5 11.25H11.4503Z" stroke="#FF4905" stroke-width="1.5"/>
<rect x="11.5" y="21.5" width="24" height="13" rx="2.5" stroke="#152C5B" stroke-width="3"/>
<line x1="12" y1="27.5" x2="34" y2="27.5" stroke="#152C5B"/>
</svg>
