<svg width="48" height="48" viewBox="0 0 48 48" fill="none" xmlns="http://www.w3.org/2000/svg">
<rect width="48" height="48" fill="white"/>
<path d="M10.5 17.5H36.5V19.5H10.5V17.5Z" stroke="#152C5B"/>
<path d="M15.5 45C15.5 44.1716 16.1716 43.5 17 43.5C17.8284 43.5 18.5 44.1716 18.5 45V46C18.5 46.8284 17.8284 47.5 17 47.5C16.1716 47.5 15.5 46.8284 15.5 46V45Z" stroke="#152C5B"/>
<rect x="14.5" y="22.5" width="3" height="1" stroke="#FF4905"/>
<rect x="14.5" y="22.5" width="3" height="1" stroke="#FF4905"/>
<rect x="14.5" y="12.5" width="3" height="1" stroke="#FF4905"/>
<path d="M29.5 45C29.5 44.1716 30.1716 43.5 31 43.5C31.8284 43.5 32.5 44.1716 32.5 45V46C32.5 46.8284 31.8284 47.5 31 47.5C30.1716 47.5 29.5 46.8284 29.5 46V45Z" stroke="#152C5B"/>
<rect x="11.5" y="2.5" width="24" height="41" rx="6.5" stroke="#152C5B" stroke-width="3"/>
</svg>
