<svg width="48" height="48" viewBox="0 0 48 48" fill="none" xmlns="http://www.w3.org/2000/svg">
<rect width="48" height="48" fill="white"/>
<mask id="path-1-inside-1" fill="white">
<path fill-rule="evenodd" clip-rule="evenodd" d="M30.48 8H17.16L16.1782 13H11C5.47715 13 1 17.4772 1 23V31C1 36.5228 5.47715 41 11 41H37C42.5228 41 47 36.5228 47 31V23C47 17.4772 42.5228 13 37 13H31.6255L30.48 8Z"/>
</mask>
<path d="M17.16 8V6H15.5145L15.1975 7.61463L17.16 8ZM30.48 8L32.4295 7.55339L32.0736 6H30.48V8ZM16.1782 13V15H17.8236L18.1407 13.3854L16.1782 13ZM31.6255 13L29.676 13.4466L30.0318 15H31.6255V13ZM17.16 10H30.48V6H17.16V10ZM18.1407 13.3854L19.1225 8.38537L15.1975 7.61463L14.2157 12.6146L18.1407 13.3854ZM11 15H16.1782V11H11V15ZM3 23C3 18.5817 6.58172 15 11 15V11C4.37258 11 -1 16.3726 -1 23H3ZM3 31V23H-1V31H3ZM11 39C6.58172 39 3 35.4183 3 31H-1C-1 37.6274 4.37258 43 11 43V39ZM37 39H11V43H37V39ZM45 31C45 35.4183 41.4183 39 37 39V43C43.6274 43 49 37.6274 49 31H45ZM45 23V31H49V23H45ZM37 15C41.4183 15 45 18.5817 45 23H49C49 16.3726 43.6274 11 37 11V15ZM31.6255 15H37V11H31.6255V15ZM28.5305 8.44661L29.676 13.4466L33.575 12.5534L32.4295 7.55339L28.5305 8.44661Z" fill="#152C5B" mask="url(#path-1-inside-1)"/>
<circle cx="24" cy="27" r="6.5" stroke="#FF4905"/>
<rect x="30.5" y="16.5" width="7" height="1" stroke="#FF4905"/>
</svg>
