<svg width="48" height="48" viewBox="0 0 48 48" fill="none" xmlns="http://www.w3.org/2000/svg">
<rect width="48" height="48" fill="white"/>
<path d="M1 37.6C1 36.1641 2.16406 35 3.6 35H44.4C45.8359 35 47 36.1641 47 37.6C47 43.3438 42.3438 48 36.6 48H11.4C5.65624 48 1 43.3438 1 37.6Z" fill="#152C5B"/>
<path d="M5 47.8C5 47.9105 5.08954 48 5.2 48H44.8C44.9105 48 45 47.9105 45 47.8C45 47.3582 44.6418 47 44.2 47H5.8C5.35817 47 5 47.3582 5 47.8Z" fill="#152C5B"/>
<path d="M30.8586 14.384C30.7749 14.4677 30.7749 14.6034 30.8586 14.6871L36.2124 20.0409C36.2961 20.1246 36.4318 20.1246 36.5155 20.0409C37.9939 18.5625 37.9939 16.1655 36.5155 14.6871L36.2124 14.384C34.734 12.9056 32.337 12.9056 30.8586 14.384Z" stroke="#FF4905"/>
<rect x="44" y="18" width="2" height="19" fill="#152C5B"/>
<path d="M36 14.8038L36.4279 13.9103C36.6687 13.4076 37.2715 13.1952 37.7742 13.436L45.0733 16.9319C46.0695 17.409 46.4903 18.6034 46.0132 19.5996L36 14.8038Z" fill="#152C5B"/>
<line x1="27.3123" y1="20.3904" x2="22.3123" y2="24.3904" stroke="#0A97B0"/>
<line x1="19.3123" y1="27.3904" x2="14.3123" y2="31.3904" stroke="#0A97B0"/>
<line x1="32.3123" y1="19.3904" x2="27.3123" y2="23.3904" stroke="#0A97B0"/>
<line x1="30.3123" y1="24.3904" x2="25.3123" y2="28.3904" stroke="#0A97B0"/>
<line x1="23.3123" y1="30.3904" x2="18.3123" y2="34.3904" stroke="#0A97B0"/>
<line x1="25.3123" y1="25.3904" x2="20.3123" y2="29.3904" stroke="#0A97B0"/>
<path d="M19 30.5L14 34.5" stroke="#0A97B0"/>
<line x1="21.3123" y1="22.3904" x2="16.3123" y2="26.3904" stroke="#0A97B0"/>
<line x1="28.3123" y1="29.3904" x2="23.3123" y2="33.3904" stroke="#0A97B0"/>
</svg>
