<svg width="27" height="27" viewBox="0 0 27 27" fill="none" xmlns="http://www.w3.org/2000/svg">
<rect width="27" height="27" fill="#152C5B"/>
<rect x="2.5" y="5.5" width="23" height="19" rx="2.5" stroke="white"/>
<path d="M2.5 10.5H25.5" stroke="white"/>
<path d="M6 7V3" stroke="white" stroke-linecap="round"/>
<path d="M22 7V3" stroke="white" stroke-linecap="round"/>
<path d="M9.55559 18.767C9.75959 18.605 9.85259 18.53 9.83459 18.542C10.4226 18.056 10.8846 17.657 11.2206 17.345C11.5626 17.033 11.8506 16.706 12.0846 16.364C12.3186 16.022 12.4356 15.689 12.4356 15.365C12.4356 15.119 12.3786 14.927 12.2646 14.789C12.1506 14.651 11.9796 14.582 11.7516 14.582C11.5236 14.582 11.3436 14.669 11.2116 14.843C11.0856 15.011 11.0226 15.251 11.0226 15.563H9.53759C9.54959 15.053 9.65759 14.627 9.86159 14.285C10.0716 13.943 10.3446 13.691 10.6806 13.529C11.0226 13.367 11.4006 13.286 11.8146 13.286C12.5286 13.286 13.0656 13.469 13.4256 13.835C13.7916 14.201 13.9746 14.678 13.9746 15.266C13.9746 15.908 13.7556 16.505 13.3176 17.057C12.8796 17.603 12.3216 18.137 11.6436 18.659H14.0736V19.91H9.55559V18.767ZM14.8052 15.284C14.8292 14.642 15.0392 14.147 15.4352 13.799C15.8312 13.451 16.3682 13.277 17.0462 13.277C17.4962 13.277 17.8802 13.355 18.1982 13.511C18.5222 13.667 18.7652 13.88 18.9272 14.15C19.0952 14.42 19.1792 14.723 19.1792 15.059C19.1792 15.455 19.0802 15.779 18.8822 16.031C18.6842 16.277 18.4532 16.445 18.1892 16.535V16.571C18.5312 16.685 18.8012 16.874 18.9992 17.138C19.1972 17.402 19.2962 17.741 19.2962 18.155C19.2962 18.527 19.2092 18.857 19.0352 19.145C18.8672 19.427 18.6182 19.649 18.2882 19.811C17.9642 19.973 17.5772 20.054 17.1272 20.054C16.4072 20.054 15.8312 19.877 15.3992 19.523C14.9732 19.169 14.7482 18.635 14.7242 17.921H16.2182C16.2242 18.185 16.2992 18.395 16.4432 18.551C16.5872 18.701 16.7972 18.776 17.0732 18.776C17.3072 18.776 17.4872 18.71 17.6132 18.578C17.7452 18.44 17.8112 18.26 17.8112 18.038C17.8112 17.75 17.7182 17.543 17.5322 17.417C17.3522 17.285 17.0612 17.219 16.6592 17.219H16.3712V15.968H16.6592C16.9652 15.968 17.2112 15.917 17.3972 15.815C17.5892 15.707 17.6852 15.518 17.6852 15.248C17.6852 15.032 17.6252 14.864 17.5052 14.744C17.3852 14.624 17.2202 14.564 17.0102 14.564C16.7822 14.564 16.6112 14.633 16.4972 14.771C16.3892 14.909 16.3262 15.08 16.3082 15.284H14.8052Z" fill="white"/>
</svg>
