<svg width="48" height="48" viewBox="0 0 48 48" fill="none" xmlns="http://www.w3.org/2000/svg">
<g clip-path="url(#clip0)">
<rect width="48" height="48" fill="white"/>
<path d="M9.5 31C9.5 30.1716 10.1716 29.5 11 29.5C11.8284 29.5 12.5 30.1716 12.5 31V43C12.5 43.8284 11.8284 44.5 11 44.5C10.1716 44.5 9.5 43.8284 9.5 43V31Z" stroke="#152C5B"/>
<path d="M30.5 31C30.5 30.1716 31.1716 29.5 32 29.5C32.8284 29.5 33.5 30.1716 33.5 31V34C33.5 34.8284 32.8284 35.5 32 35.5C31.1716 35.5 30.5 34.8284 30.5 34V31Z" stroke="#152C5B"/>
<path d="M15.5 31C15.5 30.1716 16.1716 29.5 17 29.5C17.8284 29.5 18.5 30.1716 18.5 31V34C18.5 34.8284 17.8284 35.5 17 35.5C16.1716 35.5 15.5 34.8284 15.5 34V31Z" stroke="#152C5B"/>
<path d="M36.5 31C36.5 30.1716 37.1716 29.5 38 29.5C38.8284 29.5 39.5 30.1716 39.5 31V43C39.5 43.8284 38.8284 44.5 38 44.5C37.1716 44.5 36.5 43.8284 36.5 43V31Z" stroke="#152C5B"/>
<path d="M12.2948 19.7495C12.6744 19.2757 13.2486 19 13.8557 19H33.3345C33.8531 19 34.3514 19.2014 34.7243 19.5618L41.9681 26.5618C43.2613 27.8115 42.3767 30 40.5783 30H8.24753C6.56986 30 5.63772 28.0588 6.68668 26.7495L12.2948 19.7495Z" stroke="#152C5B" stroke-width="2"/>
<ellipse cx="25" cy="24" rx="3" ry="1" fill="#152C5B"/>
<path d="M24.5 19V24M25.5 19V24" stroke="#FF4905"/>
<path d="M24.3824 17.5669C23.8645 16.8396 24.1086 14.8361 24.7834 14.3556C25.0033 14.199 25.0884 14.3187 25.1655 14.5494C25.6151 15.8945 26.5503 16.6371 25.395 17.4597C24.7202 17.9403 24.9003 18.2942 24.3824 17.5669Z" fill="#FF4905"/>
<path d="M25.4154 18.3409C25.8561 17.9821 26.045 16.7114 25.7121 16.3025C25.6036 16.1693 25.5311 16.2284 25.4448 16.3571C24.9417 17.1065 24.2422 17.4041 24.8121 18.1041C25.145 18.513 24.9746 18.6998 25.4154 18.3409Z" fill="#FF4905"/>
<ellipse cx="25" cy="21" rx="4" ry="1" stroke="#FF4905" stroke-width="0.3"/>
<line x1="21.1423" y1="20.9526" x2="22.1423" y2="23.9526" stroke="#FF4905" stroke-width="0.3"/>
<line y1="-0.15" x2="3.16228" y2="-0.15" transform="matrix(-0.316228 0.948683 0.948683 0.316228 29 21)" stroke="#FF4905" stroke-width="0.3"/>
<path d="M13 20H16V21.5C16 22.3284 15.3284 23 14.5 23C13.6716 23 13 22.3284 13 21.5V20Z" fill="#FF4905"/>
<line x1="14.5" y1="22" x2="14.5" y2="25" stroke="#FF4905"/>
<ellipse cx="14.5" cy="24.5" rx="1.5" ry="0.5" fill="#FF4905"/>
<path d="M32 20H35V21.5C35 22.3284 34.3284 23 33.5 23C32.6716 23 32 22.3284 32 21.5V20Z" fill="#FF4905"/>
<line x1="33.5" y1="22" x2="33.5" y2="25" stroke="#FF4905"/>
<ellipse cx="33.5" cy="24.5" rx="1.5" ry="0.5" fill="#FF4905"/>
</g>
<defs>
<clipPath id="clip0">
<rect width="48" height="48" fill="white"/>
</clipPath>
</defs>
</svg>
