<svg width="48" height="48" viewBox="0 0 48 48" fill="none" xmlns="http://www.w3.org/2000/svg">
<rect width="48" height="48" fill="white"/>
<line x1="16.3254" y1="4.62037" x2="23.3254" y2="10.6204" stroke="#FF4905"/>
<line y1="-0.5" x2="9.21954" y2="-0.5" transform="matrix(-0.759257 0.650791 0.650791 0.759257 31 5)" stroke="#FF4905"/>
<path d="M12 27H35V30H12V27Z" fill="#FF4905"/>
<path d="M12 13H35V16H12V13Z" fill="#FF4905"/>
<path d="M8.5 37C8.5 36.1716 9.17157 35.5 10 35.5C10.8284 35.5 11.5 36.1716 11.5 37V45C11.5 45.8284 10.8284 46.5 10 46.5C9.17157 46.5 8.5 45.8284 8.5 45V37Z" stroke="#152C5B"/>
<path d="M36.5 36C36.5 35.1716 37.1716 34.5 38 34.5C38.8284 34.5 39.5 35.1716 39.5 36V45C39.5 45.8284 38.8284 46.5 38 46.5C37.1716 46.5 36.5 45.8284 36.5 45V36Z" stroke="#152C5B"/>
<rect x="11.5" y="11.5" width="24" height="20" rx="6.5" stroke="#152C5B" stroke-width="3"/>
<rect x="7" y="33" width="34" height="6" rx="2" fill="#152C5B"/>
</svg>
