<svg width="48" height="48" viewBox="0 0 48 48" fill="none" xmlns="http://www.w3.org/2000/svg">
<rect width="48" height="48" fill="white"/>
<path d="M25 42C25 43.0963 24.1289 44.3336 22.1692 45.3561C20.2578 46.3533 17.548 47 14.5 47C11.452 47 8.74217 46.3533 6.83084 45.3561C4.87114 44.3336 4 43.0963 4 42C4 40.9037 4.87114 39.6664 6.83084 38.6439C8.74217 37.6467 11.452 37 14.5 37C17.548 37 20.2578 37.6467 22.1692 38.6439C24.1289 39.6664 25 40.9037 25 42Z" stroke="#152C5B" stroke-width="2"/>
<path d="M25.5 12.6099C25.5 15.8301 24.1134 22.2268 21.8049 27.8466C20.656 30.6434 19.3205 33.1424 17.8922 34.9147C16.4243 36.7363 15.0997 37.5 14 37.5C12.9003 37.5 11.5757 36.7363 10.1078 34.9147C8.67951 33.1424 7.34398 30.6434 6.19511 27.8466C3.88659 22.2268 2.5 15.8301 2.5 12.6099C2.5 6.51683 7.60532 1.5 14 1.5C20.3947 1.5 25.5 6.51683 25.5 12.6099Z" stroke="#152C5B" stroke-width="3"/>
<circle cx="13.5" cy="14.5" r="5.5" stroke="#FF4905" stroke-width="2"/>
</svg>
