<svg width="48" height="48" viewBox="0 0 48 48" fill="none" xmlns="http://www.w3.org/2000/svg">
<rect width="48" height="48" fill="white"/>
<path d="M9.75 5C9.75 3.75736 10.7574 2.75 12 2.75H15C16.2426 2.75 17.25 3.75736 17.25 5V15.25H9.75V5Z" stroke="#152C5B" stroke-width="1.5"/>
<path d="M0.5 24.5H26.5V28.5H0.5V24.5Z" stroke="#FF4905"/>
<path d="M7.5 44C7.5 43.1716 8.17157 42.5 9 42.5C9.82843 42.5 10.5 43.1716 10.5 44V45C10.5 45.8284 9.82843 46.5 9 46.5C8.17157 46.5 7.5 45.8284 7.5 45V44Z" stroke="#152C5B"/>
<path d="M16.5 44C16.5 43.1716 17.1716 42.5 18 42.5C18.8284 42.5 19.5 43.1716 19.5 44V45C19.5 45.8284 18.8284 46.5 18 46.5C17.1716 46.5 16.5 45.8284 16.5 45V44Z" stroke="#152C5B"/>
<rect x="1.5" y="14.5" width="24" height="28" rx="6.5" stroke="#152C5B" stroke-width="3"/>
</svg>
